<svg width="45" height="42" viewBox="0 0 45 42" fill="none" xmlns="http://www.w3.org/2000/svg">
<path d="M2.50001 42C1.79167 42 1.19751 41.664 0.717508 40.992C0.237508 40.32 -0.00165802 39.4893 8.65052e-06 38.5C8.65052e-06 37.5083 0.240009 36.6765 0.720009 36.0045C1.20001 35.3325 1.79334 34.9977 2.50001 35H42.5C43.2083 35 43.8025 35.336 44.2825 36.008C44.7625 36.68 45.0017 37.5107 45 38.5C45 39.4917 44.76 40.3235 44.28 40.9955C43.8 41.6675 43.2067 42.0023 42.5 42H2.50001ZM2.50001 24.5C1.79167 24.5 1.19751 24.164 0.717508 23.492C0.237508 22.82 -0.00165802 21.9893 8.65052e-06 21C8.65052e-06 20.0083 0.240009 19.1765 0.720009 18.5045C1.20001 17.8325 1.79334 17.4977 2.50001 17.5H42.5C43.2083 17.5 43.8025 17.836 44.2825 18.508C44.7625 19.18 45.0017 20.0107 45 21C45 21.9917 44.76 22.8235 44.28 23.4955C43.8 24.1675 43.2067 24.5023 42.5 24.5H2.50001ZM2.50001 7.00001C1.79167 7.00001 1.19751 6.66401 0.717508 5.99201C0.237508 5.32001 -0.00165802 4.48934 8.65052e-06 3.50001C8.65052e-06 2.50834 0.240009 1.67651 0.720009 1.00451C1.20001 0.332513 1.79334 -0.00232122 2.50001 1.21107e-05H42.5C43.2083 1.21107e-05 43.8025 0.336012 44.2825 1.00801C44.7625 1.68001 45.0017 2.51068 45 3.50001C45 4.49168 44.76 5.32351 44.28 5.99551C43.8 6.66751 43.2067 7.00234 42.5 7.00001H2.50001Z" fill="black"/>
</svg>
