<svg width="49" height="49" viewBox="0 0 49 49" fill="none" xmlns="http://www.w3.org/2000/svg">
<path d="M28.5833 30.625V34.7083C28.5833 35.2498 28.3682 35.7691 27.9853 36.152C27.6025 36.5349 27.0832 36.75 26.5417 36.75H12.25L6.125 42.875V22.4583C6.125 21.9169 6.3401 21.3975 6.72299 21.0147C7.10588 20.6318 7.62518 20.4167 8.16667 20.4167H12.25M42.875 28.5833L36.75 22.4583H22.4583C21.9169 22.4583 21.3975 22.2432 21.0147 21.8603C20.6318 21.4775 20.4167 20.9582 20.4167 20.4167V8.16667C20.4167 7.62518 20.6318 7.10588 21.0147 6.72299C21.3975 6.3401 21.9169 6.125 22.4583 6.125H40.8333C41.3748 6.125 41.8941 6.3401 42.277 6.72299C42.6599 7.10588 42.875 7.62518 42.875 8.16667V28.5833Z" stroke="#F8F8F8" stroke-width="2" stroke-linecap="round" stroke-linejoin="round"/>
</svg>
