<svg width="56" height="56" viewBox="0 0 56 56" fill="none" xmlns="http://www.w3.org/2000/svg">
<path fill-rule="evenodd" clip-rule="evenodd" d="M28 49C39.5979 49 49 39.5978 49 28C49 16.4022 39.5979 6.99999 28 6.99999C16.4022 6.99999 7.00002 16.4022 7.00002 28C7.00002 39.5978 16.4022 49 28 49ZM28 51.3333C40.887 51.3333 51.3334 40.887 51.3334 28C51.3334 15.113 40.887 4.66666 28 4.66666C15.113 4.66666 4.66669 15.113 4.66669 28C4.66669 40.887 15.113 51.3333 28 51.3333Z" fill="#F8F8F8"/>
<path d="M14 41.5683C14 40.3631 14.9007 39.3446 16.1 39.2116C25.1008 38.2153 30.94 38.3051 39.921 39.2338C40.3695 39.2809 40.7945 39.4576 41.1443 39.7423C41.494 40.027 41.7532 40.4074 41.8903 40.837C42.0274 41.2666 42.0364 41.7268 41.9163 42.1614C41.7961 42.5961 41.552 42.9863 41.2137 43.2845C30.6145 52.5233 24.5572 52.3961 14.7467 43.2938C14.2683 42.8505 14 42.2193 14 41.5683Z" fill="#F8F8F8"/>
<path fill-rule="evenodd" clip-rule="evenodd" d="M39.8009 40.3935C30.891 39.4718 25.1359 39.3855 16.2272 40.3713C15.934 40.4055 15.6636 40.5466 15.4679 40.7677C15.2723 40.9888 15.165 41.2743 15.1667 41.5695C15.1667 41.9032 15.3055 42.2193 15.54 42.4387C20.4027 46.949 24.087 48.9872 27.6885 49C31.3029 49.0128 35.1855 46.991 40.4472 42.406C40.6144 42.2572 40.7347 42.0631 40.7936 41.8472C40.8525 41.6313 40.8474 41.4029 40.7789 41.1899C40.7105 40.9768 40.5816 40.7883 40.4079 40.6471C40.2343 40.5059 40.0234 40.417 39.8009 40.3935ZM15.9717 38.052C25.067 37.0452 30.9914 37.1362 40.0424 38.073C40.7171 38.1434 41.3566 38.409 41.8826 38.8373C42.4087 39.2656 42.7985 39.838 43.0042 40.4843C43.21 41.1307 43.2228 41.8231 43.0412 42.4767C42.8595 43.1302 42.4912 43.7167 41.9814 44.1642C36.6439 48.8168 32.1989 51.3508 27.6815 51.3333C23.1514 51.317 18.9024 48.7398 13.9545 44.149C13.6003 43.819 13.3179 43.4195 13.125 42.9755C12.9321 42.5315 12.8328 42.0524 12.8334 41.5683C12.8317 40.6985 13.151 39.8586 13.73 39.2096C14.3091 38.5605 15.1073 38.1491 15.9717 38.052Z" fill="#F8F8F8"/>
<path d="M37.3334 23.3333C37.3334 25.8087 36.35 28.1827 34.5997 29.933C32.8493 31.6833 30.4754 32.6667 28 32.6667C25.5247 32.6667 23.1507 31.6833 21.4004 29.933C19.65 28.1827 18.6667 25.8087 18.6667 23.3333C18.6667 20.858 19.65 18.484 21.4004 16.7337C23.1507 14.9833 25.5247 14 28 14C30.4754 14 32.8493 14.9833 34.5997 16.7337C36.35 18.484 37.3334 20.858 37.3334 23.3333Z" fill="#F8F8F8"/>
<path fill-rule="evenodd" clip-rule="evenodd" d="M28 30.3333C29.8565 30.3333 31.637 29.5958 32.9498 28.2831C34.2625 26.9703 35 25.1898 35 23.3333C35 21.4768 34.2625 19.6963 32.9498 18.3836C31.637 17.0708 29.8565 16.3333 28 16.3333C26.1435 16.3333 24.363 17.0708 23.0503 18.3836C21.7375 19.6963 21 21.4768 21 23.3333C21 25.1898 21.7375 26.9703 23.0503 28.2831C24.363 29.5958 26.1435 30.3333 28 30.3333ZM28 32.6667C30.4754 32.6667 32.8493 31.6833 34.5997 29.933C36.35 28.1827 37.3334 25.8087 37.3334 23.3333C37.3334 20.858 36.35 18.484 34.5997 16.7337C32.8493 14.9833 30.4754 14 28 14C25.5247 14 23.1507 14.9833 21.4004 16.7337C19.65 18.484 18.6667 20.858 18.6667 23.3333C18.6667 25.8087 19.65 28.1827 21.4004 29.933C23.1507 31.6833 25.5247 32.6667 28 32.6667Z" fill="#F8F8F8"/>
</svg>
