<svg width="246" height="37" viewBox="0 0 246 37" fill="none" xmlns="http://www.w3.org/2000/svg">
<rect width="246" height="37" rx="18.5" fill="white"/>
<path d="M27.0114 23.7233H25.7467L25.2985 23.3373C26.9216 21.6564 27.8137 19.5104 27.8119 17.291C27.8119 15.4534 27.2016 13.6571 26.0582 12.1292C24.9148 10.6013 23.2896 9.41046 21.3881 8.70724C19.4867 8.00403 17.3944 7.82003 15.3758 8.17853C13.3573 8.53702 11.5031 9.42191 10.0478 10.7213C8.59254 12.0207 7.60147 13.6762 7.19995 15.4784C6.79844 17.2807 7.00451 19.1488 7.79211 20.8465C8.57971 22.5443 9.91347 23.9953 11.6247 25.0162C13.336 26.0371 15.3478 26.582 17.4059 26.582C19.9834 26.582 22.3528 25.7387 24.1778 24.3379L24.6101 24.7381V25.8674L32.6146 33L35 30.8702L27.0114 23.7233ZM17.4059 23.7233C13.4197 23.7233 10.2018 20.8502 10.2018 17.291C10.2018 13.7318 13.4197 10.8588 17.4059 10.8588C21.3922 10.8588 24.6101 13.7318 24.6101 17.291C24.6101 20.8502 21.3922 23.7233 17.4059 23.7233Z" fill="black"/>
</svg>
