<svg width="57" height="57" viewBox="0 0 57 57" fill="none" xmlns="http://www.w3.org/2000/svg">
<path d="M8.31251 19C8.31298 16.7483 8.89551 14.5349 10.0036 12.5747C11.1116 10.6145 12.7075 8.97405 14.6365 7.81247C16.5655 6.6509 18.762 6.00768 21.0128 5.94524C23.2636 5.8828 25.4924 6.40326 27.4828 7.45611C29.4732 8.50897 31.1576 10.0585 32.3726 11.9542C33.5876 13.85 34.292 16.0276 34.4173 18.2758C34.5426 20.5241 34.0846 22.7665 33.0877 24.7855C32.0909 26.8045 30.5891 28.5316 28.728 29.7991C32.7358 31.2691 36.212 33.9048 38.7093 37.3671C41.2065 40.8293 42.6105 44.9597 42.7405 49.2266C42.735 49.6867 42.5519 50.1268 42.2295 50.455C41.9071 50.7832 41.4704 50.9742 41.0105 50.988C40.5506 51.0018 40.1032 50.8374 39.7617 50.529C39.4202 50.2207 39.2111 49.7924 39.178 49.3335C39.0366 44.7057 37.0988 40.3148 33.7753 37.0913C30.4518 33.8679 26.0038 32.0651 21.3738 32.0651C16.7439 32.0651 12.2958 33.8679 8.97235 37.0913C5.64886 40.3148 3.71107 44.7057 3.56964 49.3335C3.54586 49.7986 3.34087 50.2359 2.99859 50.5517C2.65631 50.8675 2.20396 51.0367 1.73845 51.023C1.27294 51.0094 0.83129 50.8139 0.508122 50.4786C0.184954 50.1433 0.00596943 49.6947 0.00951205 49.229C0.139072 44.9617 1.54283 40.8308 4.04009 37.3681C6.53735 33.9053 10.0138 31.2692 14.022 29.7991C12.2617 28.6013 10.8212 26.991 9.82603 25.1087C8.83086 23.2264 8.31125 21.1292 8.31251 19ZM21.375 9.49999C18.8555 9.49999 16.4391 10.5009 14.6575 12.2825C12.8759 14.0641 11.875 16.4804 11.875 19C11.875 21.5196 12.8759 23.9359 14.6575 25.7175C16.4391 27.4991 18.8555 28.5 21.375 28.5C23.8946 28.5 26.3109 27.4991 28.0925 25.7175C29.8741 23.9359 30.875 21.5196 30.875 19C30.875 16.4804 29.8741 14.0641 28.0925 12.2825C26.3109 10.5009 23.8946 9.49999 21.375 9.49999ZM41.0638 19C40.7123 19 40.3703 19.0237 40.033 19.0712C39.7976 19.1134 39.556 19.1077 39.3228 19.0545C39.0896 19.0013 38.8695 18.9016 38.6756 18.7615C38.4817 18.6214 38.3181 18.4436 38.1944 18.2389C38.0707 18.0342 37.9895 17.8066 37.9557 17.5698C37.9219 17.333 37.9361 17.0918 37.9975 16.8606C38.0589 16.6294 38.1663 16.413 38.3131 16.2242C38.46 16.0354 38.6434 15.8781 38.8524 15.7617C39.0614 15.6453 39.2917 15.5722 39.5295 15.5467C41.8916 15.2052 44.3002 15.6588 46.3763 16.8362C48.4524 18.0135 50.078 19.8478 50.9974 22.0503C51.9168 24.2528 52.0778 26.6984 51.455 29.0024C50.8321 31.3064 49.4609 33.3378 47.557 34.7771C50.3557 36.0303 52.7319 38.0665 54.3991 40.6401C56.0662 43.2138 56.953 46.2148 56.9525 49.2812C56.9525 49.7537 56.7648 50.2067 56.4308 50.5408C56.0967 50.8748 55.6437 51.0625 55.1713 51.0625C54.6988 51.0625 54.2458 50.8748 53.9117 50.5408C53.5777 50.2067 53.39 49.7537 53.39 49.2812C53.3897 46.6311 52.5358 44.0515 50.9548 41.9246C49.3737 39.7978 47.1497 38.2367 44.612 37.4727L43.3438 37.0927V33.1122L44.3175 32.6159C45.7609 31.8847 46.9158 30.6884 47.5957 29.2202C48.2757 27.7519 48.4409 26.0974 48.0649 24.5237C47.6888 22.9499 46.7933 21.5489 45.523 20.5467C44.2528 19.5444 42.6818 18.9996 41.0638 19Z" fill="#F8F8F8"/>
</svg>
